<?xml version="1.0" encoding="UTF-8" standalone="no"?>
<svg
   width="866.80518"
   height="325.71637"
   viewBox="0 0 866.80518 325.71637"
   version="1.1"
   id="svg54"
   sodipodi:docname="undraw_bitcoin_re_urgq.svg"
   inkscape:version="1.1.2 (0a00cf5339, 2022-02-04)"
   xmlns:inkscape="http://www.inkscape.org/namespaces/inkscape"
   xmlns:sodipodi="http://sodipodi.sourceforge.net/DTD/sodipodi-0.dtd"
   xmlns="http://www.w3.org/2000/svg"
   xmlns:svg="http://www.w3.org/2000/svg">
  <defs
     id="defs58" />
  <sodipodi:namedview
     id="namedview56"
     pagecolor="#ffffff"
     bordercolor="#666666"
     borderopacity="1.0"
     inkscape:pageshadow="2"
     inkscape:pageopacity="0.0"
     inkscape:pagecheckerboard="0"
     showgrid="false"
     inkscape:zoom="1.6151265"
     inkscape:cx="433.09301"
     inkscape:cy="163.14512"
     inkscape:window-width="2560"
     inkscape:window-height="1376"
     inkscape:window-x="0"
     inkscape:window-y="27"
     inkscape:window-maximized="1"
     inkscape:current-layer="svg54" />
  <g
     id="g52">
    <path
       d="M553.90176,221.98203c-16.25607,58.47673-82.29613,94.06481-147.50707,79.48233-65.18425-14.57905-104.86613-73.80966-88.6024-132.28296,16.24853-58.48349,82.28859-94.07512,147.48038-79.49596,65.20711,14.57905,104.88505,73.81653,88.62898,132.29659h.00012Z"
       fill="#f7931a"
       id="path48" />
    <path
       d="M489.50855,180.02538c2.4228-14.5245-9.90814-22.33255-26.76895-27.54134l5.46938-19.67532-13.35401-2.98472-5.32487,19.1568c-3.51064-.78459-7.11634-1.52474-10.69918-2.25811l5.36294-19.28307-13.34646-2.98472-5.47321,19.66845c-2.9059-.59357-5.75852-1.18027-8.52745-1.79768l.01521-.06142-18.41655-4.12409-3.55243,12.79167s9.90814,2.03638,9.69886,2.16265c5.40855,1.21098,6.38601,4.42077,6.22246,6.96547l-6.23012,22.41447c.37271,.08526,.85581,.20809,1.38824,.39912-.44503-.09889-.92046-.20809-1.4111-.31386l-8.73278,31.39925c-.66185,1.47362-2.33911,3.68396-6.11985,2.84492,.13314,.17395-9.70652-2.17286-9.70652-2.17286l-6.62953,13.70931,17.37816,3.88528c3.23299,.72661,6.40133,1.48726,9.52011,2.20357l-5.52648,19.90048,13.3388,2.98472,5.47321-19.68895c3.64377,.88692,7.18099,1.70556,10.64219,2.47651l-5.45417,19.59683,13.35401,2.98472,5.52648-19.8629c22.7715,3.86478,39.89488,2.30589,47.10245-16.16531,5.80796-14.8724-.28902-23.4514-12.27012-29.04568,8.72523-1.80445,15.29766-6.95183,17.05106-17.58428l.00023,.0001Zm-30.51162,38.37159c-4.12676,14.8724-32.0482,6.83243-41.10053,4.81645l7.33317-26.36451c9.05233,2.02618,38.08054,6.03763,33.76737,21.54795v.0001Zm4.13059-38.58655c-3.76542,13.52849-27.00482,6.65504-34.54332,4.96999l6.64845-23.91194c7.5385,1.68505,31.81617,4.83009,27.89487,18.94194Z"
       fill="#fff"
       id="path50" />
  </g>
</svg>
